<svg width="19" height="19" viewBox="0 0 19 19" fill="none" xmlns="http://www.w3.org/2000/svg">
<path d="M16.8889 0L2.11111 0C0.95 0 0 0.95 0 2.11111L0 16.8889C0 18.05 0.95 19 2.11111 19L16.8889 19C18.05 19 19 18.05 19 16.8889L19 2.11111C19 0.95 18.05 0 16.8889 0ZM8.44444 5.27778L6.33333 5.27778V7.38889C6.33333 8.55 5.38333 9.5 4.22222 9.5C5.38333 9.5 6.33333 10.45 6.33333 11.6111V13.7222H8.44444V15.8333H6.33333C5.17222 15.8333 4.22222 14.8833 4.22222 13.7222V12.6667C4.22222 11.5056 3.27222 10.5556 2.11111 10.5556L2.11111 8.44444C3.27222 8.44444 4.22222 7.49444 4.22222 6.33333V5.27778C4.22222 4.11667 5.17222 3.16667 6.33333 3.16667L8.44444 3.16667V5.27778ZM16.8889 10.5556C15.7278 10.5556 14.7778 11.5056 14.7778 12.6667V13.7222C14.7778 14.8833 13.8278 15.8333 12.6667 15.8333H10.5556V13.7222H12.6667V11.6111C12.6667 10.45 13.6167 9.5 14.7778 9.5C13.6167 9.5 12.6667 8.55 12.6667 7.38889L12.6667 5.27778H10.5556V3.16667L12.6667 3.16667C13.8278 3.16667 14.7778 4.11667 14.7778 5.27778L14.7778 6.33333C14.7778 7.49444 15.7278 8.44444 16.8889 8.44444V10.5556Z" fill="#18AC00"/>
</svg>
